<mxfile host="app.diagrams.net" modified="2024-05-22T00:49:09.324Z" agent="Mozilla/5.0 (Windows NT 10.0; Win64; x64) AppleWebKit/537.36 (KHTML, like Gecko) Chrome/125.0.0.0 Safari/537.36" etag="IgxIMTvrixq-df971QBn" version="24.4.4" type="device">
  <diagram name="PÃ¡gina-1" id="epCYJ5g3gr7RbiKe7U1Q">
    <mxGraphModel dx="798" dy="422" grid="1" gridSize="10" guides="1" tooltips="1" connect="1" arrows="1" fold="1" page="1" pageScale="1" pageWidth="1169" pageHeight="827" math="0" shadow="0">
      <root>
        <mxCell id="0" />
        <mxCell id="1" parent="0" />
        <mxCell id="9ynU7KZ9oEsgTZgociMK-155" value="" style="rounded=0;whiteSpace=wrap;html=1;" vertex="1" parent="1">
          <mxGeometry x="40" y="90" width="740" height="280" as="geometry" />
        </mxCell>
        <mxCell id="9ynU7KZ9oEsgTZgociMK-126" value="BatchNorm" style="rounded=0;whiteSpace=wrap;html=1;rotation=-90;fillColor=#fff2cc;strokeColor=#d6b656;" vertex="1" parent="1">
          <mxGeometry x="310.37" y="228.39000000000001" width="92.75" height="27.5" as="geometry" />
        </mxCell>
        <mxCell id="9ynU7KZ9oEsgTZgociMK-2" value="" style="endArrow=classic;html=1;rounded=0;entryX=0.5;entryY=0;entryDx=0;entryDy=0;exitX=0.5;exitY=1;exitDx=0;exitDy=0;" edge="1" parent="1" source="9ynU7KZ9oEsgTZgociMK-72" target="9ynU7KZ9oEsgTZgociMK-14">
          <mxGeometry width="50" height="50" relative="1" as="geometry">
            <mxPoint x="120" y="240" as="sourcePoint" />
            <mxPoint x="150" y="240" as="targetPoint" />
          </mxGeometry>
        </mxCell>
        <mxCell id="9ynU7KZ9oEsgTZgociMK-14" value="Concatenate" style="rounded=0;whiteSpace=wrap;html=1;rotation=-90;fillColor=#d5e8d4;strokeColor=#82b366;" vertex="1" parent="1">
          <mxGeometry x="120" y="226.25" width="92.75" height="27.5" as="geometry" />
        </mxCell>
        <mxCell id="9ynU7KZ9oEsgTZgociMK-19" value="" style="rounded=0;whiteSpace=wrap;html=1;rotation=-90;fillColor=#e1d5e7;strokeColor=#9673a6;" vertex="1" parent="1">
          <mxGeometry x="251" y="233.61" width="92.75" height="15" as="geometry" />
        </mxCell>
        <mxCell id="9ynU7KZ9oEsgTZgociMK-20" value="" style="endArrow=classic;html=1;rounded=0;exitX=0.5;exitY=1;exitDx=0;exitDy=0;entryX=0.5;entryY=0;entryDx=0;entryDy=0;" edge="1" parent="1" source="9ynU7KZ9oEsgTZgociMK-19" target="9ynU7KZ9oEsgTZgociMK-21">
          <mxGeometry width="50" height="50" relative="1" as="geometry">
            <mxPoint x="304.8749999999999" y="241.11" as="sourcePoint" />
            <mxPoint x="331.375" y="242.93" as="targetPoint" />
          </mxGeometry>
        </mxCell>
        <mxCell id="9ynU7KZ9oEsgTZgociMK-21" value="" style="rounded=0;whiteSpace=wrap;html=1;rotation=-90;fillColor=#dae8fc;strokeColor=#6c8ebf;" vertex="1" parent="1">
          <mxGeometry x="277" y="233.86" width="92.75" height="15" as="geometry" />
        </mxCell>
        <mxCell id="9ynU7KZ9oEsgTZgociMK-23" value="" style="endArrow=classic;html=1;rounded=0;exitX=0.5;exitY=1;exitDx=0;exitDy=0;entryX=0.5;entryY=0;entryDx=0;entryDy=0;" edge="1" parent="1" source="9ynU7KZ9oEsgTZgociMK-21">
          <mxGeometry width="50" height="50" relative="1" as="geometry">
            <mxPoint x="332" y="240.86" as="sourcePoint" />
            <mxPoint x="343" y="241.86" as="targetPoint" />
          </mxGeometry>
        </mxCell>
        <mxCell id="9ynU7KZ9oEsgTZgociMK-24" value="" style="endArrow=classic;html=1;rounded=0;exitX=0.5;exitY=1;exitDx=0;exitDy=0;entryX=0.5;entryY=0;entryDx=0;entryDy=0;" edge="1" parent="1" target="9ynU7KZ9oEsgTZgociMK-19">
          <mxGeometry width="50" height="50" relative="1" as="geometry">
            <mxPoint x="276.875" y="241.11" as="sourcePoint" />
            <mxPoint x="320" y="241.42000000000002" as="targetPoint" />
          </mxGeometry>
        </mxCell>
        <mxCell id="9ynU7KZ9oEsgTZgociMK-25" value="" style="endArrow=none;html=1;rounded=0;exitX=1;exitY=0;exitDx=0;exitDy=0;entryX=1;entryY=1;entryDx=0;entryDy=0;" edge="1" parent="1" source="9ynU7KZ9oEsgTZgociMK-19" target="9ynU7KZ9oEsgTZgociMK-126">
          <mxGeometry width="50" height="50" relative="1" as="geometry">
            <mxPoint x="311" y="219.86" as="sourcePoint" />
            <mxPoint x="358.3750000000001" y="194.98500000000007" as="targetPoint" />
          </mxGeometry>
        </mxCell>
        <mxCell id="9ynU7KZ9oEsgTZgociMK-26" value="" style="endArrow=none;html=1;rounded=0;exitX=0;exitY=0;exitDx=0;exitDy=0;entryX=0;entryY=1;entryDx=0;entryDy=0;" edge="1" parent="1" source="9ynU7KZ9oEsgTZgociMK-19" target="9ynU7KZ9oEsgTZgociMK-126">
          <mxGeometry width="50" height="50" relative="1" as="geometry">
            <mxPoint x="288" y="289.86" as="sourcePoint" />
            <mxPoint x="358.3750000000001" y="287.7350000000001" as="targetPoint" />
          </mxGeometry>
        </mxCell>
        <mxCell id="9ynU7KZ9oEsgTZgociMK-27" value="" style="rounded=0;whiteSpace=wrap;html=1;rotation=-90;fillColor=#e1d5e7;strokeColor=#9673a6;" vertex="1" parent="1">
          <mxGeometry x="344.75" y="234.64" width="92.75" height="15" as="geometry" />
        </mxCell>
        <mxCell id="9ynU7KZ9oEsgTZgociMK-28" value="" style="endArrow=classic;html=1;rounded=0;exitX=0.5;exitY=1;exitDx=0;exitDy=0;entryX=0.5;entryY=0;entryDx=0;entryDy=0;" edge="1" parent="1" source="9ynU7KZ9oEsgTZgociMK-27" target="9ynU7KZ9oEsgTZgociMK-29">
          <mxGeometry width="50" height="50" relative="1" as="geometry">
            <mxPoint x="398.6249999999999" y="242.14" as="sourcePoint" />
            <mxPoint x="425.125" y="243.95999999999998" as="targetPoint" />
          </mxGeometry>
        </mxCell>
        <mxCell id="9ynU7KZ9oEsgTZgociMK-29" value="" style="rounded=0;whiteSpace=wrap;html=1;rotation=-90;fillColor=#dae8fc;strokeColor=#6c8ebf;" vertex="1" parent="1">
          <mxGeometry x="370.75" y="234.89" width="92.75" height="15" as="geometry" />
        </mxCell>
        <mxCell id="9ynU7KZ9oEsgTZgociMK-30" value="" style="rounded=0;whiteSpace=wrap;html=1;rotation=-90;fillColor=#fff2cc;strokeColor=#d6b656;" vertex="1" parent="1">
          <mxGeometry x="398.25" y="234.89" width="92.75" height="15" as="geometry" />
        </mxCell>
        <mxCell id="9ynU7KZ9oEsgTZgociMK-31" value="" style="endArrow=classic;html=1;rounded=0;exitX=0.5;exitY=1;exitDx=0;exitDy=0;entryX=0.5;entryY=0;entryDx=0;entryDy=0;" edge="1" parent="1" source="9ynU7KZ9oEsgTZgociMK-29">
          <mxGeometry width="50" height="50" relative="1" as="geometry">
            <mxPoint x="425.75" y="241.89" as="sourcePoint" />
            <mxPoint x="436.75" y="242.89" as="targetPoint" />
          </mxGeometry>
        </mxCell>
        <mxCell id="9ynU7KZ9oEsgTZgociMK-32" value="" style="endArrow=classic;html=1;rounded=0;exitX=0.5;exitY=1;exitDx=0;exitDy=0;entryX=0.5;entryY=0;entryDx=0;entryDy=0;" edge="1" parent="1" target="9ynU7KZ9oEsgTZgociMK-27">
          <mxGeometry width="50" height="50" relative="1" as="geometry">
            <mxPoint x="370.75" y="241.89" as="sourcePoint" />
            <mxPoint x="413.75" y="242.45" as="targetPoint" />
          </mxGeometry>
        </mxCell>
        <mxCell id="9ynU7KZ9oEsgTZgociMK-33" value="" style="endArrow=none;html=1;rounded=0;exitX=1;exitY=0;exitDx=0;exitDy=0;entryX=1;entryY=1;entryDx=0;entryDy=0;" edge="1" parent="1" source="9ynU7KZ9oEsgTZgociMK-27" target="9ynU7KZ9oEsgTZgociMK-30">
          <mxGeometry width="50" height="50" relative="1" as="geometry">
            <mxPoint x="404.75" y="220.89" as="sourcePoint" />
            <mxPoint x="454.75" y="170.89" as="targetPoint" />
          </mxGeometry>
        </mxCell>
        <mxCell id="9ynU7KZ9oEsgTZgociMK-34" value="" style="endArrow=none;html=1;rounded=0;exitX=0;exitY=0;exitDx=0;exitDy=0;entryX=0;entryY=1;entryDx=0;entryDy=0;" edge="1" parent="1" source="9ynU7KZ9oEsgTZgociMK-27" target="9ynU7KZ9oEsgTZgociMK-30">
          <mxGeometry width="50" height="50" relative="1" as="geometry">
            <mxPoint x="381.75" y="290.89" as="sourcePoint" />
            <mxPoint x="454.75" y="290.89" as="targetPoint" />
          </mxGeometry>
        </mxCell>
        <mxCell id="9ynU7KZ9oEsgTZgociMK-35" value="" style="rounded=0;whiteSpace=wrap;html=1;rotation=-90;fillColor=#e1d5e7;strokeColor=#9673a6;" vertex="1" parent="1">
          <mxGeometry x="426" y="235.29999999999998" width="92.75" height="15" as="geometry" />
        </mxCell>
        <mxCell id="9ynU7KZ9oEsgTZgociMK-36" value="" style="endArrow=classic;html=1;rounded=0;exitX=0.5;exitY=1;exitDx=0;exitDy=0;entryX=0.5;entryY=0;entryDx=0;entryDy=0;" edge="1" parent="1" source="9ynU7KZ9oEsgTZgociMK-35" target="9ynU7KZ9oEsgTZgociMK-37">
          <mxGeometry width="50" height="50" relative="1" as="geometry">
            <mxPoint x="479.8749999999999" y="242.79999999999998" as="sourcePoint" />
            <mxPoint x="506.375" y="244.61999999999998" as="targetPoint" />
          </mxGeometry>
        </mxCell>
        <mxCell id="9ynU7KZ9oEsgTZgociMK-37" value="" style="rounded=0;whiteSpace=wrap;html=1;rotation=-90;fillColor=#dae8fc;strokeColor=#6c8ebf;" vertex="1" parent="1">
          <mxGeometry x="452" y="235.54999999999998" width="92.75" height="15" as="geometry" />
        </mxCell>
        <mxCell id="9ynU7KZ9oEsgTZgociMK-38" value="" style="rounded=0;whiteSpace=wrap;html=1;rotation=-90;fillColor=#fff2cc;strokeColor=#d6b656;" vertex="1" parent="1">
          <mxGeometry x="479.5" y="235.54999999999998" width="92.75" height="15" as="geometry" />
        </mxCell>
        <mxCell id="9ynU7KZ9oEsgTZgociMK-39" value="" style="endArrow=classic;html=1;rounded=0;exitX=0.5;exitY=1;exitDx=0;exitDy=0;entryX=0.5;entryY=0;entryDx=0;entryDy=0;" edge="1" parent="1" source="9ynU7KZ9oEsgTZgociMK-37">
          <mxGeometry width="50" height="50" relative="1" as="geometry">
            <mxPoint x="507" y="242.54999999999998" as="sourcePoint" />
            <mxPoint x="518" y="243.54999999999998" as="targetPoint" />
          </mxGeometry>
        </mxCell>
        <mxCell id="9ynU7KZ9oEsgTZgociMK-40" value="" style="endArrow=classic;html=1;rounded=0;exitX=0.5;exitY=1;exitDx=0;exitDy=0;entryX=0.5;entryY=0;entryDx=0;entryDy=0;" edge="1" parent="1" target="9ynU7KZ9oEsgTZgociMK-35">
          <mxGeometry width="50" height="50" relative="1" as="geometry">
            <mxPoint x="452" y="242.54999999999998" as="sourcePoint" />
            <mxPoint x="495" y="243.10999999999999" as="targetPoint" />
          </mxGeometry>
        </mxCell>
        <mxCell id="9ynU7KZ9oEsgTZgociMK-41" value="" style="endArrow=none;html=1;rounded=0;exitX=1;exitY=0;exitDx=0;exitDy=0;entryX=1;entryY=1;entryDx=0;entryDy=0;" edge="1" parent="1" source="9ynU7KZ9oEsgTZgociMK-35" target="9ynU7KZ9oEsgTZgociMK-38">
          <mxGeometry width="50" height="50" relative="1" as="geometry">
            <mxPoint x="486" y="221.54999999999998" as="sourcePoint" />
            <mxPoint x="536" y="171.54999999999998" as="targetPoint" />
          </mxGeometry>
        </mxCell>
        <mxCell id="9ynU7KZ9oEsgTZgociMK-42" value="" style="endArrow=none;html=1;rounded=0;exitX=0;exitY=0;exitDx=0;exitDy=0;entryX=0;entryY=1;entryDx=0;entryDy=0;" edge="1" parent="1" source="9ynU7KZ9oEsgTZgociMK-35" target="9ynU7KZ9oEsgTZgociMK-38">
          <mxGeometry width="50" height="50" relative="1" as="geometry">
            <mxPoint x="463" y="291.55" as="sourcePoint" />
            <mxPoint x="536" y="291.55" as="targetPoint" />
          </mxGeometry>
        </mxCell>
        <mxCell id="9ynU7KZ9oEsgTZgociMK-72" value="Input" style="rounded=0;whiteSpace=wrap;html=1;rotation=-90;fillColor=#bac8d3;strokeColor=#23445d;" vertex="1" parent="1">
          <mxGeometry x="38.25" y="170" width="92.75" height="27.5" as="geometry" />
        </mxCell>
        <mxCell id="9ynU7KZ9oEsgTZgociMK-100" value="c64k4s2" style="text;html=1;align=center;verticalAlign=middle;resizable=0;points=[];autosize=1;strokeColor=none;fillColor=none;" vertex="1" parent="1">
          <mxGeometry x="181" y="287" width="70" height="30" as="geometry" />
        </mxCell>
        <mxCell id="9ynU7KZ9oEsgTZgociMK-110" value="Output" style="rounded=0;whiteSpace=wrap;html=1;rotation=-90;fillColor=#bac8d3;strokeColor=#23445d;" vertex="1" parent="1">
          <mxGeometry x="695.25" y="230.11999999999998" width="92.75" height="27.5" as="geometry" />
        </mxCell>
        <mxCell id="9ynU7KZ9oEsgTZgociMK-116" value="" style="endArrow=classic;html=1;rounded=0;exitX=0.5;exitY=1;exitDx=0;exitDy=0;entryX=0.5;entryY=0;entryDx=0;entryDy=0;" edge="1" parent="1" target="9ynU7KZ9oEsgTZgociMK-110">
          <mxGeometry width="50" height="50" relative="1" as="geometry">
            <mxPoint x="714.625" y="244.53" as="sourcePoint" />
            <mxPoint x="648" y="98.67" as="targetPoint" />
          </mxGeometry>
        </mxCell>
        <mxCell id="9ynU7KZ9oEsgTZgociMK-117" value="Input" style="rounded=0;whiteSpace=wrap;html=1;rotation=-90;fillColor=#bac8d3;strokeColor=#23445d;" vertex="1" parent="1">
          <mxGeometry x="38.25" y="278" width="92.75" height="27.5" as="geometry" />
        </mxCell>
        <mxCell id="9ynU7KZ9oEsgTZgociMK-118" value="" style="endArrow=classic;html=1;rounded=0;entryX=0.5;entryY=0;entryDx=0;entryDy=0;exitX=0.5;exitY=1;exitDx=0;exitDy=0;" edge="1" parent="1" source="9ynU7KZ9oEsgTZgociMK-117" target="9ynU7KZ9oEsgTZgociMK-14">
          <mxGeometry width="50" height="50" relative="1" as="geometry">
            <mxPoint x="113" y="313" as="sourcePoint" />
            <mxPoint x="168" y="369" as="targetPoint" />
          </mxGeometry>
        </mxCell>
        <mxCell id="9ynU7KZ9oEsgTZgociMK-120" value="Conv2d" style="rounded=0;whiteSpace=wrap;html=1;rotation=-90;fillColor=#e1d5e7;strokeColor=#9673a6;" vertex="1" parent="1">
          <mxGeometry x="169.62" y="227.5" width="92.75" height="27.5" as="geometry" />
        </mxCell>
        <mxCell id="9ynU7KZ9oEsgTZgociMK-121" value="" style="endArrow=classic;html=1;rounded=0;exitX=0.5;exitY=1;exitDx=0;exitDy=0;entryX=0;entryY=0.5;entryDx=0;entryDy=0;" edge="1" parent="1">
          <mxGeometry width="50" height="50" relative="1" as="geometry">
            <mxPoint x="229.62" y="241.17" as="sourcePoint" />
            <mxPoint x="249.62" y="241.17" as="targetPoint" />
          </mxGeometry>
        </mxCell>
        <mxCell id="9ynU7KZ9oEsgTZgociMK-122" value="" style="endArrow=classic;html=1;rounded=0;exitX=0.5;exitY=1;exitDx=0;exitDy=0;entryX=0;entryY=0.5;entryDx=0;entryDy=0;" edge="1" parent="1">
          <mxGeometry width="50" height="50" relative="1" as="geometry">
            <mxPoint x="181" y="241.35999999999999" as="sourcePoint" />
            <mxPoint x="201" y="241.35999999999999" as="targetPoint" />
          </mxGeometry>
        </mxCell>
        <mxCell id="9ynU7KZ9oEsgTZgociMK-125" value="LeakyReLu" style="rounded=0;whiteSpace=wrap;html=1;rotation=-90;fillColor=#dae8fc;strokeColor=#6c8ebf;" vertex="1" parent="1">
          <mxGeometry x="217.62" y="227.5" width="92.75" height="27.5" as="geometry" />
        </mxCell>
        <mxCell id="9ynU7KZ9oEsgTZgociMK-132" value="" style="endArrow=classic;html=1;rounded=0;exitX=0.5;exitY=1;exitDx=0;exitDy=0;entryX=0.5;entryY=0;entryDx=0;entryDy=0;" edge="1" parent="1">
          <mxGeometry width="50" height="50" relative="1" as="geometry">
            <mxPoint x="533" y="242.54999999999998" as="sourcePoint" />
            <mxPoint x="545.875" y="242.79999999999995" as="targetPoint" />
          </mxGeometry>
        </mxCell>
        <mxCell id="9ynU7KZ9oEsgTZgociMK-136" value="ZeroPaadding" style="rounded=0;whiteSpace=wrap;html=1;rotation=-90;fillColor=#d5e8d4;strokeColor=#82b366;" vertex="1" parent="1">
          <mxGeometry x="514.75" y="230.3" width="92.75" height="27.5" as="geometry" />
        </mxCell>
        <mxCell id="9ynU7KZ9oEsgTZgociMK-137" value="" style="rounded=0;whiteSpace=wrap;html=1;rotation=-90;fillColor=#e1d5e7;strokeColor=#9673a6;" vertex="1" parent="1">
          <mxGeometry x="550" y="236.36999999999998" width="92.75" height="15" as="geometry" />
        </mxCell>
        <mxCell id="9ynU7KZ9oEsgTZgociMK-138" value="" style="endArrow=classic;html=1;rounded=0;exitX=0.5;exitY=1;exitDx=0;exitDy=0;entryX=0.5;entryY=0;entryDx=0;entryDy=0;" edge="1" parent="1" source="9ynU7KZ9oEsgTZgociMK-137" target="9ynU7KZ9oEsgTZgociMK-139">
          <mxGeometry width="50" height="50" relative="1" as="geometry">
            <mxPoint x="603.8749999999999" y="243.86999999999998" as="sourcePoint" />
            <mxPoint x="630.375" y="245.68999999999997" as="targetPoint" />
          </mxGeometry>
        </mxCell>
        <mxCell id="9ynU7KZ9oEsgTZgociMK-139" value="" style="rounded=0;whiteSpace=wrap;html=1;rotation=-90;fillColor=#dae8fc;strokeColor=#6c8ebf;" vertex="1" parent="1">
          <mxGeometry x="576" y="236.61999999999998" width="92.75" height="15" as="geometry" />
        </mxCell>
        <mxCell id="9ynU7KZ9oEsgTZgociMK-140" value="" style="rounded=0;whiteSpace=wrap;html=1;rotation=-90;fillColor=#fff2cc;strokeColor=#d6b656;" vertex="1" parent="1">
          <mxGeometry x="603.5" y="236.61999999999998" width="92.75" height="15" as="geometry" />
        </mxCell>
        <mxCell id="9ynU7KZ9oEsgTZgociMK-141" value="" style="endArrow=classic;html=1;rounded=0;exitX=0.5;exitY=1;exitDx=0;exitDy=0;entryX=0.5;entryY=0;entryDx=0;entryDy=0;" edge="1" parent="1" source="9ynU7KZ9oEsgTZgociMK-139">
          <mxGeometry width="50" height="50" relative="1" as="geometry">
            <mxPoint x="631" y="243.61999999999998" as="sourcePoint" />
            <mxPoint x="642" y="244.61999999999998" as="targetPoint" />
          </mxGeometry>
        </mxCell>
        <mxCell id="9ynU7KZ9oEsgTZgociMK-142" value="" style="endArrow=none;html=1;rounded=0;exitX=1;exitY=0;exitDx=0;exitDy=0;entryX=1;entryY=1;entryDx=0;entryDy=0;" edge="1" parent="1" source="9ynU7KZ9oEsgTZgociMK-137" target="9ynU7KZ9oEsgTZgociMK-140">
          <mxGeometry width="50" height="50" relative="1" as="geometry">
            <mxPoint x="610" y="222.61999999999998" as="sourcePoint" />
            <mxPoint x="660" y="172.61999999999998" as="targetPoint" />
          </mxGeometry>
        </mxCell>
        <mxCell id="9ynU7KZ9oEsgTZgociMK-143" value="" style="endArrow=none;html=1;rounded=0;exitX=0;exitY=0;exitDx=0;exitDy=0;entryX=0;entryY=1;entryDx=0;entryDy=0;" edge="1" parent="1" source="9ynU7KZ9oEsgTZgociMK-137" target="9ynU7KZ9oEsgTZgociMK-140">
          <mxGeometry width="50" height="50" relative="1" as="geometry">
            <mxPoint x="587" y="292.62" as="sourcePoint" />
            <mxPoint x="660" y="292.62" as="targetPoint" />
          </mxGeometry>
        </mxCell>
        <mxCell id="9ynU7KZ9oEsgTZgociMK-144" value="" style="endArrow=classic;html=1;rounded=0;exitX=0.5;exitY=1;exitDx=0;exitDy=0;entryX=0.5;entryY=0;entryDx=0;entryDy=0;" edge="1" parent="1">
          <mxGeometry width="50" height="50" relative="1" as="geometry">
            <mxPoint x="657.25" y="244.27999999999997" as="sourcePoint" />
            <mxPoint x="670.25" y="244.73" as="targetPoint" />
          </mxGeometry>
        </mxCell>
        <mxCell id="9ynU7KZ9oEsgTZgociMK-145" value="" style="endArrow=classic;html=1;rounded=0;exitX=0.5;exitY=1;exitDx=0;exitDy=0;entryX=0.5;entryY=0;entryDx=0;entryDy=0;" edge="1" parent="1">
          <mxGeometry width="50" height="50" relative="1" as="geometry">
            <mxPoint x="576" y="243.74999999999997" as="sourcePoint" />
            <mxPoint x="588.875" y="243.99999999999994" as="targetPoint" />
          </mxGeometry>
        </mxCell>
        <mxCell id="9ynU7KZ9oEsgTZgociMK-147" value="" style="rounded=0;whiteSpace=wrap;html=1;rotation=-90;fillColor=#d5e8d4;strokeColor=#82b366;" vertex="1" parent="1">
          <mxGeometry x="631" y="237.74999999999997" width="92.75" height="15" as="geometry" />
        </mxCell>
        <mxCell id="9ynU7KZ9oEsgTZgociMK-148" value="" style="rounded=0;whiteSpace=wrap;html=1;rotation=-90;fillColor=#e1d5e7;strokeColor=#9673a6;" vertex="1" parent="1">
          <mxGeometry x="660" y="236.61999999999998" width="92.75" height="15" as="geometry" />
        </mxCell>
        <mxCell id="9ynU7KZ9oEsgTZgociMK-149" value="" style="endArrow=classic;html=1;rounded=0;exitX=0.5;exitY=1;exitDx=0;exitDy=0;entryX=0.5;entryY=0;entryDx=0;entryDy=0;" edge="1" parent="1">
          <mxGeometry width="50" height="50" relative="1" as="geometry">
            <mxPoint x="685.25" y="243.89999999999998" as="sourcePoint" />
            <mxPoint x="698.25" y="244.35" as="targetPoint" />
          </mxGeometry>
        </mxCell>
        <mxCell id="9ynU7KZ9oEsgTZgociMK-150" value="c128k4s2" style="text;html=1;align=center;verticalAlign=middle;resizable=0;points=[];autosize=1;strokeColor=none;fillColor=none;" vertex="1" parent="1">
          <mxGeometry x="262.37" y="287" width="70" height="30" as="geometry" />
        </mxCell>
        <mxCell id="9ynU7KZ9oEsgTZgociMK-151" value="c256k4s2" style="text;html=1;align=center;verticalAlign=middle;resizable=0;points=[];autosize=1;strokeColor=none;fillColor=none;" vertex="1" parent="1">
          <mxGeometry x="356.13" y="287" width="70" height="30" as="geometry" />
        </mxCell>
        <mxCell id="9ynU7KZ9oEsgTZgociMK-152" value="c512k4s2" style="text;html=1;align=center;verticalAlign=middle;resizable=0;points=[];autosize=1;strokeColor=none;fillColor=none;" vertex="1" parent="1">
          <mxGeometry x="437.37" y="287" width="70" height="30" as="geometry" />
        </mxCell>
        <mxCell id="9ynU7KZ9oEsgTZgociMK-153" value="c512k4s1" style="text;html=1;align=center;verticalAlign=middle;resizable=0;points=[];autosize=1;strokeColor=none;fillColor=none;" vertex="1" parent="1">
          <mxGeometry x="561" y="287" width="70" height="30" as="geometry" />
        </mxCell>
        <mxCell id="9ynU7KZ9oEsgTZgociMK-154" value="c1k4s1" style="text;html=1;align=center;verticalAlign=middle;resizable=0;points=[];autosize=1;strokeColor=none;fillColor=none;" vertex="1" parent="1">
          <mxGeometry x="673.75" y="287" width="60" height="30" as="geometry" />
        </mxCell>
      </root>
    </mxGraphModel>
  </diagram>
</mxfile>
